<svg xmlns="http://www.w3.org/2000/svg" viewBox="-25 -25 150 150"><g fill="#FFF"><path d="M81.382 50c7.906-3.798 13.378-11.885 13.378-21.226 0-12.976-10.557-23.534-23.534-23.534-9.341 0-17.428 5.472-21.226 13.378-3.798-7.906-11.885-13.378-21.226-13.378-12.977 0-23.534 10.557-23.534 23.534 0 9.341 5.472 17.428 13.378 21.226-7.906 3.798-13.378 11.885-13.378 21.226 0 12.976 10.557 23.534 23.534 23.534 9.341 0 17.428-5.472 21.226-13.378 3.798 7.906 11.885 13.378 21.226 13.378 12.976 0 23.534-10.557 23.534-23.534 0-9.341-5.472-17.428-13.378-21.226zm-10.156-40.145c10.432 0 18.919 8.487 18.919 18.919s-8.487 18.919-18.919 18.919-18.919-8.487-18.919-18.919 8.487-18.919 18.919-18.919zm-61.371 18.919c0-10.432 8.487-18.919 18.919-18.919s18.919 8.487 18.919 18.919-8.487 18.919-18.919 18.919-18.919-8.487-18.919-18.919zm18.919 61.371c-10.432 0-18.919-8.487-18.919-18.919s8.487-18.919 18.919-18.919 18.919 8.487 18.919 18.919-8.487 18.919-18.919 18.919zm42.452 0c-10.432 0-18.919-8.487-18.919-18.919s8.487-18.919 18.919-18.919 18.919 8.487 18.919 18.919-8.487 18.919-18.919 18.919zM43.034 35.602c.551-1.15.065-2.527-1.084-3.078l-8.407-4.025c-.146-2.515-2.218-4.523-4.77-4.523-1.04 0-1.998.341-2.784.906l-8.398-4.021c-1.149-.551-2.527-.065-3.078 1.084-.551 1.15-.065 2.527 1.084 3.078l8.406 4.025c.145 2.517 2.218 4.524 4.771 4.524 1.04 0 1.998-.342 2.785-.907l8.398 4.021c.322.154.661.227.995.227.86.001 1.686-.483 2.082-1.311zM64.851 43.242c.303.133.618.196.929.196.886 0 1.731-.515 2.113-1.378l3.76-8.532c2.443-.22 4.371-2.255 4.371-4.755 0-1.093-.382-2.089-.999-2.897l3.759-8.53c.514-1.165-.015-2.527-1.182-3.042-1.166-.515-2.527.014-3.042 1.182l-3.76 8.533c-2.444.22-4.372 2.255-4.372 4.754 0 1.093.382 2.09 1 2.898l-3.758 8.529c-.514 1.166.015 2.528 1.181 3.042zM32.681 73.992c.556-.783.89-1.734.89-2.765 0-2.56-2.022-4.64-4.55-4.772l-4.07-8.383c-.556-1.145-1.936-1.624-3.083-1.068-1.146.557-1.624 1.937-1.068 3.083l4.066 8.375c-.556.783-.891 1.734-.891 2.765 0 2.561 2.022 4.641 4.551 4.773l4.07 8.382c.399.822 1.221 1.301 2.077 1.301.338 0 .681-.075 1.006-.233 1.146-.557 1.624-1.937 1.068-3.083l-4.066-8.375zM82.343 63.221l-8.363 4.09c-.781-.551-1.728-.882-2.754-.882-2.566 0-4.65 2.029-4.775 4.564l-8.37 4.094c-1.145.56-1.619 1.942-1.059 3.087.4.818 1.221 1.294 2.075 1.294.34 0 .686-.076 1.012-.235l8.362-4.089c.781.551 1.728.882 2.755.882 2.565 0 4.649-2.029 4.774-4.564l8.371-4.094c1.145-.56 1.619-1.942 1.059-3.087-.56-1.146-1.941-1.621-3.087-1.06z"/></g></svg>
