<svg viewBox="-25 -25 150 130" xmlns="http://www.w3.org/2000/svg"><g fill="#fff"><path d="M12.143 52.846c.829-.835.837-2.179 0-3.012-10.35-10.35-10.354-27.191 0-37.538l.171-.15c.833-.778.856-2.17.031-3.015-.829-.839-2.173-.856-3.008-.027l-.211.181c-12.008 12.014-12.008 31.558 0 43.565.835.831 2.186.829 3.017-.004zM18.784 46.203c.833-.833.833-2.177 0-3.01-6.686-6.685-6.682-17.568.006-24.256l.165-.149c.841-.771.86-2.175.033-3.012-.827-.843-2.177-.86-3.016-.035l-.196.181c-8.355 8.352-8.355 21.936-.01 30.281.837.835 2.181.833 3.018 0zM25.075 39.912c.833-.837.835-2.181.002-3.016-3.19-3.19-3.216-8.367-.074-11.59l.235-.196c.786-.792.872-2.165.062-3.018-.813-.851-2.165-.879-3.018-.064l-.219.185c-4.883 4.885-4.877 12.821-.003 17.699.839.837 2.182.831 3.015 0z"/><circle cx="29.983" cy="30.983" r="2.983"/><path d="M71.505.386c-12.274 0-23.633 8.716-26.944 18.74h19.866v3.71h17.723c.273.023 3.221.352 5.309 1.837 3.536 2.532 4.552 6.94 4.594 7.125.169.763-.309 1.52-1.073 1.689-.752.165-1.517-.311-1.688-1.074-.006-.031-.835-3.547-3.478-5.438-1.474-1.049-3.794-1.319-3.817-1.321l-35.668.008v9.142c0 .78-.631 1.413-1.414 1.413-.78 0-1.414-.633-1.414-1.413v-10.556l.004-.021h-.009v-1.402h-6.624v11.981h3.61l-4.414 9.757c-.121.265-.177.573-.177.892 0 1.273 1.029 2.303 2.301 2.303h4.688v7.998c0 6.239 5.044 11.291 11.278 11.291h4.487v11.272h30.534v-26.135c6.658-5.237 10.941-14.045 10.941-23.169.002-15.816-12.804-28.629-28.615-28.629zm-19.024 33.909c-1.548 0-2.802-1.258-2.802-2.802 0-1.547 1.254-2.804 2.802-2.804s2.804 1.256 2.804 2.804c0 1.543-1.256 2.802-2.804 2.802zm33.415 5.558c-1.195 4.175-4.7 6.974-8.336 6.974-.641 0-1.287-.088-1.928-.271-.74-.211-1.167-.982-.953-1.72.211-.738.979-1.165 1.718-.956 2.783.789 5.841-1.355 6.825-4.794.646-2.254.562-4.274-.229-5.545-.56-.901-1.46-1.451-2.748-1.684-1.898-.338-4.112.376-4.792 2.75-.212.738-.977 1.173-1.723.953-.737-.211-1.165-.982-.951-1.722.988-3.443 4.257-5.384 7.959-4.72 2.047.369 3.646 1.388 4.618 2.951 1.224 1.965 1.418 4.731.54 7.784z"/></g></svg>
