<svg xmlns="http://www.w3.org/2000/svg" viewBox="-25 -25 150 150"><g fill="#FFF"><path d="M44.919 89.269c.182 1.64-.963 3.366-2.545 3.836l-3.498 1.041c-1.582.47-3.159-.466-3.505-2.079l-1.742-8.133c-.346-1.613.678-2.595 2.275-2.181l5.518 1.43c1.598.414 3.054 2.095 3.235 3.734l.262 2.352zM79.703 45.013l-23.567 1.004c-1.487.066-2.894.938-3.562 2.384l-.35.753-6.857 14.795c-3.821-.242-7.201-1.38-9.568-3.144-1.353-.992-2.438-2.24-3.272-3.674-.416-.715-.768-1.485-1.039-2.277-.136-.395-.252-.796-.341-1.18l-.11-.548-.031-.227-.006-.075v-.011c0-.329-.105-.649-.186-.963l14.535-8.363.167-.096c.72-.416 1.293-1.091 1.566-1.946l6.047-18.882c.587-1.834-.423-3.796-2.256-4.383-1.834-.587-3.796.423-4.383 2.256l-5.575 17.408s-19.584 8.086-22.604 10.718c-1.499 1.307-1.863 2.013-2.775 4.041l-8.517 18.944c-.763 1.695-.085 3.691 1.552 4.573l15.786 8.5c.534.287 1.109.424 1.677.424 1.262 0 2.482-.676 3.123-1.864.928-1.723.283-3.872-1.44-4.8l-12.881-6.936 3.646-8.106c.357.658.736 1.307 1.148 1.938 2.015 3.098 4.729 5.815 7.811 7.821 3.079 2.022 6.458 3.325 9.761 4.078 3.312.749 7.012.843 8.889.911 2.56.093 6.952-1.753 8.23-5.507.617-1.812 5.632-17.986 5.632-17.986l20.346-2.605c1.781-.233 3.133-1.796 3.055-3.624-.084-1.933-1.718-3.433-3.651-3.351zM30.995 52.813l.015.089-.015-.089zM90 94c-1.657 0-3-1.343-3-3v-51.151l-23.309-8.208c-.814-.287-1.465-.91-1.787-1.71l-5.669-14.087-35.777-5.232c-1.639-.24-2.773-1.764-2.534-3.403.24-1.64 1.762-2.773 3.403-2.534l37.482 5.482c1.056.155 1.95.858 2.349 1.849l5.806 14.427 24.032 8.463c1.201.421 2.004 1.556 2.004 2.829v53.275c0 1.657-1.343 3-3 3zM19.127 43.248c4.93.279 9.201-3.742 9.336-8.795.133-5.061-3.848-9.301-8.799-9.354-4.916-.057-9.109 4.157-9.086 9.132.02 4.747 3.818 8.748 8.549 9.017z"/></g></svg>
