<svg xmlns="http://www.w3.org/2000/svg" xmlns:xlink="http://www.w3.org/1999/xlink" viewBox="-25 -25 150 150" xml:space="preserve"><g fill='#FFF'><path d="M44.919,89.269c0.182,1.64-0.963,3.366-2.545,3.836l-3.498,1.041c-1.582,0.47-3.159-0.466-3.505-2.079l-1.742-8.133  c-0.346-1.613,0.678-2.595,2.275-2.181l5.518,1.43c1.598,0.414,3.054,2.095,3.235,3.734L44.919,89.269z"/><path d="M79.703,45.013l-23.567,1.004c-1.487,0.066-2.894,0.938-3.562,2.384l-0.35,0.753l-6.857,14.795   c-3.821-0.242-7.201-1.38-9.568-3.144c-1.353-0.992-2.438-2.24-3.272-3.674c-0.416-0.715-0.768-1.485-1.039-2.277   c-0.136-0.395-0.252-0.796-0.341-1.18c-0.045-0.191-0.083-0.38-0.11-0.548l-0.031-0.227L31,52.824c0-0.001,0-0.008,0-0.011   c0-0.329-0.105-0.649-0.186-0.963l14.535-8.363l0.167-0.096c0.72-0.416,1.293-1.091,1.566-1.946l6.047-18.882   c0.587-1.834-0.423-3.796-2.256-4.383c-1.834-0.587-3.796,0.423-4.383,2.256l-5.575,17.408c0,0-19.584,8.086-22.604,10.718   c-1.499,1.307-1.863,2.013-2.775,4.041S7.019,71.547,7.019,71.547c-0.763,1.695-0.085,3.691,1.552,4.573l15.786,8.5   c0.534,0.287,1.109,0.424,1.677,0.424c1.262,0,2.482-0.676,3.123-1.864c0.928-1.723,0.283-3.872-1.44-4.8l-12.881-6.936   l3.646-8.106c0.357,0.658,0.736,1.307,1.148,1.938c2.015,3.098,4.729,5.815,7.811,7.821c3.079,2.022,6.458,3.325,9.761,4.078   c3.312,0.749,7.012,0.843,8.889,0.911c2.56,0.093,6.952-1.753,8.23-5.507c0.617-1.812,5.632-17.986,5.632-17.986l20.346-2.605   c1.781-0.233,3.133-1.796,3.055-3.624C83.27,46.431,81.636,44.931,79.703,45.013z"/><path d="M30.995,52.813c0.004,0.03,0.012,0.059,0.015,0.089C30.999,52.818,30.996,52.809,30.995,52.813z"/><path d="M90,94c-1.657,0-3-1.343-3-3V39.849l-23.309-8.208c-0.814-0.287-1.465-0.91-1.787-1.71l-5.669-14.087l-35.777-5.232  c-1.639-0.24-2.773-1.764-2.534-3.403c0.24-1.64,1.762-2.773,3.403-2.534l37.482,5.482c1.056,0.155,1.95,0.858,2.349,1.849  l5.806,14.427l24.032,8.463C92.197,35.317,93,36.452,93,37.725V91C93,92.657,91.657,94,90,94z"/><path d="M19.127,43.248c4.93,0.279,9.201-3.742,9.336-8.795c0.133-5.061-3.848-9.301-8.799-9.354  c-4.916-0.057-9.109,4.157-9.086,9.132C10.598,38.978,14.396,42.979,19.127,43.248z"/></g></svg>
