<svg xmlns="http://www.w3.org/2000/svg" viewBox="-20 -15 140 130"><g fill="#FFF"><path d="M100.777 70.593l-6.916-4.06c.229-2.786-.111-5.505-.922-8.027l5.797-5.525-4.004-6.33-7.474 2.871c-1.952-1.821-4.278-3.292-6.858-4.268l-.004-.002-.708-7.986-7.444-.816-2.418 7.641c-2.732.396-5.312 1.329-7.616 2.69l-.002.002-6.682-4.424-5.281 5.313 4.464 6.651c-1.338 2.294-2.247 4.86-2.632 7.636l-7.637 2.468.862 7.437 7.981.658v.003c.988 2.538 2.459 4.864 4.325 6.829l-2.826 7.498 6.354 3.963 5.498-5.839c1.273.404 2.59.68 3.972.834 1.371.154 2.731.164 4.059.056l4.097 6.88 7.062-2.493-1.135-7.927c2.236-1.517 4.188-3.468 5.701-5.737v-.001l7.932 1.087 2.455-7.082zm-28.554.414l-3.381-.153-1.624-2.964-1.977-2.744 1.296-3.119.911-3.261 3.249-.933 3.119-1.318 2.755 1.966 2.977 1.603.173 3.381.605 3.327-2.537 2.25-2.228 2.546-3.338-.581zM45.768 22.079l-4.905 1.757.711 4.814 5.202.263v.001c.691 1.635 1.701 3.106 2.941 4.345l-1.685 4.927 4.206 2.446 3.453-3.902h.001c.837.243 1.703.395 2.592.461.899.067 1.768.057 2.634-.055h.005l2.804 4.39 4.535-1.763-.896-5.119c1.426-1.031 2.643-2.337 3.589-3.841l.002-.003 5.167.543 1.448-4.645-4.575-2.498v-.005c.088-1.823-.187-3.568-.758-5.181l-.002-.006 3.652-3.705-2.729-4.029-4.8 2.019c-1.314-1.15-2.839-2.062-4.538-2.642l-.621-5.166-4.85-.379-1.417 5.014c-1.767.307-3.427.967-4.898 1.889l-.007.004-4.417-2.731-3.321 3.557 3.035 4.23v.001c-.823 1.512-1.371 3.199-1.558 5.009zm9.398-.246l.518-2.141 2.097-.67 1.998-.922 1.822 1.219 1.965.987.187 2.185.461 2.152-1.603 1.515-1.396 1.691-2.172-.308-2.195-.031-1.122-1.89-1.342-1.745.782-2.042zM46.513 58.497l1.871-6.029-5.931-3.227v-.008c.104-2.353-.252-4.627-1-6.728l4.73-4.811-3.545-5.221-6.221 2.627c-1.7-1.49-3.688-2.666-5.89-3.421l-.812-6.696-6.292-.483-1.822 6.491-.005.001c-2.294.411-4.438 1.269-6.341 2.482l-5.745-3.541-4.303 4.616 3.939 5.478c-1.055 1.963-1.763 4.151-2.009 6.503l-6.36 2.286.93 6.242 6.738.334.002.004c.901 2.112 2.206 4.017 3.832 5.618l-2.178 6.402 5.461 3.165 4.458-5.057c1.082.296 2.207.491 3.372.588 1.166.085 2.308.061 3.425-.064h.005l3.635 5.676 5.877-2.297-1.175-6.646c1.848-1.348 3.425-3.026 4.645-4.982l.001-.002 6.708.7zm-22.161-4.901l-2.845-.038-1.458-2.45-1.74-2.257 1.009-2.657.676-2.77 2.715-.872 2.587-1.198 2.373 1.575 2.541 1.275.249 2.837.598 2.788-2.077 1.966-1.809 2.203-2.819-.402z"/></g></svg>
