<svg xmlns="http://www.w3.org/2000/svg" xmlns:xlink="http://www.w3.org/1999/xlink" viewBox="-20 -15 140 130" xml:space="preserve"><g fill='#FFF'><path d="M100.777,70.593l-6.916-4.06c0.229-2.786-0.111-5.505-0.922-8.027l5.797-5.525l-4.004-6.33l-7.474,2.871
	c-1.952-1.821-4.278-3.292-6.858-4.268c-0.002,0-0.003-0.001-0.004-0.002l-0.708-7.986l-7.444-0.816l-2.418,7.641
	c-2.732,0.396-5.312,1.329-7.616,2.69c0,0.001-0.002,0.001-0.002,0.002l-6.682-4.424l-5.281,5.313l4.464,6.651
	c-1.338,2.294-2.247,4.86-2.632,7.636l-7.637,2.468l0.862,7.437l7.981,0.658c0,0.002,0,0.003,0,0.003
	c0.988,2.538,2.459,4.864,4.325,6.829l-2.826,7.498l6.354,3.963l5.498-5.839c1.273,0.404,2.59,0.68,3.972,0.834
	c1.371,0.154,2.731,0.164,4.059,0.056l4.097,6.88l7.062-2.493l-1.135-7.927c2.236-1.517,4.188-3.468,5.701-5.737v-0.001l7.932,1.087
	L100.777,70.593z M72.223,71.007l-3.381-0.153l-1.624-2.964l-1.977-2.744l1.296-3.119l0.911-3.261l3.249-0.933l3.119-1.318
	l2.755,1.966l2.977,1.603l0.173,3.381l0.605,3.327l-2.537,2.25l-2.228,2.546L72.223,71.007z"/><path d="M45.768,22.079l-4.905,1.757l0.711,4.814l5.202,0.263v0.001c0.691,1.635,1.701,3.106,2.941,4.345l-1.685,4.927l4.206,2.446
	l3.453-3.902h0.001c0.837,0.243,1.703,0.395,2.592,0.461c0.899,0.067,1.768,0.057,2.634-0.055h0.005l2.804,4.39l4.535-1.763
	l-0.896-5.119c1.426-1.031,2.643-2.337,3.589-3.841c0.001-0.001,0.001-0.003,0.002-0.003l5.167,0.543l1.448-4.645L72.997,24.2
	c0-0.001,0-0.003,0-0.005c0.088-1.823-0.187-3.568-0.758-5.181c-0.001-0.002-0.001-0.004-0.002-0.006l3.652-3.705l-2.729-4.029
	l-4.8,2.019c-1.314-1.15-2.839-2.062-4.538-2.642l-0.621-5.166l-4.85-0.379l-1.417,5.014c-1.767,0.307-3.427,0.967-4.898,1.889
	c-0.002,0.001-0.005,0.003-0.007,0.004l-4.417-2.731l-3.321,3.557l3.035,4.23v0.001C46.503,18.582,45.955,20.269,45.768,22.079z
	 M55.166,21.833l0.518-2.141l2.097-0.67l1.998-0.922l1.822,1.219l1.965,0.987l0.187,2.185l0.461,2.152l-1.603,1.515l-1.396,1.691
	l-2.172-0.308l-2.195-0.031l-1.122-1.89l-1.342-1.745L55.166,21.833z"/><path d="M46.513,58.497l1.871-6.029l-5.931-3.227c0-0.002,0-0.005,0-0.008c0.104-2.353-0.252-4.627-1-6.728l4.73-4.811l-3.545-5.221
	L36.417,35.1c-1.7-1.49-3.688-2.666-5.89-3.421l-0.812-6.696L23.423,24.5l-1.822,6.491c-0.002,0.001-0.004,0.001-0.005,0.001
	c-2.294,0.411-4.438,1.269-6.341,2.482L9.51,29.933l-4.303,4.616l3.939,5.478c-1.055,1.963-1.763,4.151-2.009,6.503l-6.36,2.286
	l0.93,6.242l6.738,0.334c0.001,0,0.001,0.002,0.002,0.004c0.901,2.112,2.206,4.017,3.832,5.618l0,0l-2.178,6.402l5.461,3.165
	l4.458-5.057c1.082,0.296,2.207,0.491,3.372,0.588c1.166,0.085,2.308,0.061,3.425-0.064c0.001,0,0.003,0,0.005,0l3.635,5.676
	l5.877-2.297l-1.175-6.646c1.848-1.348,3.425-3.026,4.645-4.982c0,0,0-0.002,0.001-0.002L46.513,58.497z M24.352,53.596
	l-2.845-0.038l-1.458-2.45l-1.74-2.257l1.009-2.657l0.676-2.77l2.715-0.872l2.587-1.198l2.373,1.575l2.541,1.275l0.249,2.837
  l0.598,2.788l-2.077,1.966l-1.809,2.203L24.352,53.596z"/></g></svg>
