<svg xmlns="http://www.w3.org/2000/svg" viewBox="-25 -20 140 140"><path fill="#FFF" d="M20 40c3.7 0 6.9-2 8.7-5h11.3c4 0 4.9 2.8 5 5v1.8h-5.5l10.5 18.2 10.5-18.2h-5.5v-1.8c0-6-4-15-15-15h-11.3c-1.7-3-5-5-8.7-5-5.5 0-10 4.5-10 10s4.5 10 10 10zm0-16c3.3 0 6 2.7 6 6s-2.7 6-6 6-6-2.7-6-6 2.7-6 6-6zm60 36c-3.7 0-6.9 2-8.7 5h-42.6c-1.7-3-5-5-8.7-5-5.5 0-10 4.5-10 10s4.5 10 10 10c3.7 0 6.9-2 8.7-5h42.7c1.7 3 5 5 8.7 5 5.5 0 10-4.5 10-10-.1-5.5-4.6-10-10.1-10zm-60 16c-3.3 0-6-2.7-6-6s2.7-6 6-6 6 2.7 6 6-2.7 6-6 6zm60 0c-3.3 0-6-2.7-6-6s2.7-6 6-6 6 2.7 6 6-2.7 6-6 6z"/></svg>
