<svg xmlns="http://www.w3.org/2000/svg" viewBox="-15 -15 130 130"><g fill="#FFF"><path d="M89.711 36.825l-40.676 16.513-40.676-16.513 40.676-16.513zM49.035 56.038l-27.12-11.004v17.176c0 1.836 12.132 11.197 27.12 11.197s27.119-9.36 27.119-11.197v-17.176l-27.119 11.004zM83.914 60.593c1.468 0 2.658-1.246 2.658-2.783 0-1.207-.738-2.224-1.763-2.61v-13.66l-1.627.654v12.953c-1.11.334-1.927 1.393-1.927 2.663.001 1.537 1.191 2.783 2.659 2.783zM86.572 60.593c-2.658 2.326-5.317-.083-5.317-.083s-.997 3.821-1.163 6.397c-.166 2.575 1.08 4.984.748 7.144-.332 2.16 0 4.735.415 6.064.415 1.329 1.246.665 1.246.665s-.498-.498-.498-.997c0-.498 1.08-.415 1.08-.415v1.412s.665 0 .831-.506c.166-.505 1.163-.491 1.163-.491l.415-1.578s.166.664.166 1.412c0 .748.748.997 1.329 0 1.995-8.474.25-16.615-.415-19.024z"/></g></svg>
