<svg xmlns="http://www.w3.org/2000/svg" xmlns:xlink="http://www.w3.org/1999/xlink" viewBox="-15 -15 130 130" xml:space="preserve"><g fill='#FFF'><polygon points="89.711,36.825 49.035,53.338 8.359,36.825 49.035,20.312 "/><path d="M49.035,56.038l-27.12-11.004V62.21c0,1.836,12.132,11.197,27.12,11.197s27.119-9.36,27.119-11.197V45.034  L49.035,56.038z"/><path d="M83.914,60.593c1.468,0,2.658-1.246,2.658-2.783c0-1.207-0.738-2.224-1.763-2.61v-13.66l-1.627,0.654v12.953  c-1.11,0.334-1.927,1.393-1.927,2.663C81.256,59.347,82.446,60.593,83.914,60.593z"/><path d="M86.572,60.593c-2.658,2.326-5.317-0.083-5.317-0.083s-0.997,3.821-1.163,6.397  c-0.166,2.575,1.08,4.984,0.748,7.144c-0.332,2.16,0,4.735,0.415,6.064c0.415,1.329,1.246,0.665,1.246,0.665  s-0.498-0.498-0.498-0.997c0-0.498,1.08-0.415,1.08-0.415v1.412c0,0,0.665,0,0.831-0.506c0.166-0.505,1.163-0.491,1.163-0.491  l0.415-1.578c0,0,0.166,0.664,0.166,1.412c0,0.748,0.748,0.997,1.329,0C88.982,71.143,87.237,63.002,86.572,60.593z"/></g></svg>
