<svg xmlns="http://www.w3.org/2000/svg" viewBox="-35 -20 110 110"><path d="M39.979 3.248c-.093-.566-.485-1.04-1.022-1.237-3.277-1.196-7.608-2.381-12.256-2.384-3.646-.001-7.509.743-11.1 2.837-1.808 1.051-3.233 2.38-4.318 3.876-1.633 2.247-2.502 4.833-2.992 7.458-.395 2.123-.544 4.286-.624 6.383-.936.022-1.997.029-2.963.029-.845 0-1.618-.005-2.181-.011l-.666-.007-.244-.004c-.424-.006-.84.162-1.143.459-.302.299-.474.714-.471 1.139l.063 10.56c.006.88.718 1.654 1.596 1.654h1.109c1.555 0 4.457-.067 6.688-.023.33 7.254.408 18.125.408 26.56 0 3.556-.015 6.655-.027 8.887l-.02 2.612-.008.943c-.004.424.162.833.463 1.135.3.3.71.468 1.135.466l14.134-.071c.425-.002.825-.172 1.123-.475.299-.302.462-.705.458-1.131 0 0-.074-8.691-.161-18.066-.074-8.062-.156-16.618-.203-20.603.872-.015 1.888-.021 2.876-.02 1.155 0 2.279.007 3.113.014l1 .01.375.004c.425.006.834-.159 1.137-.457.303-.298.474-.704.475-1.129l.018-9.781c.001-.425-.166-.97-.467-1.269-.3-.299-.704-.605-1.13-.605h-.528c-.338 0-.819.144-1.396.144-1.773 0-4.455.063-6.577.027.038-1.085.136-2.008.296-2.826.154-.796.366-1.441.616-1.972.188-.398.397-.712.621-.975.34-.394.708-.66 1.182-.858.473-.196 1.068-.313 1.83-.314 1.353-.004 3.211.396 5.538 1.295l.054.016.053.022.102.02.16.032.153.01.157-.001.151-.02.151-.031.142-.048.143-.059.13-.073.13-.087.112-.096.112-.111.095-.119.089-.131.072-.142.047-.095.017-.057.021-.05c.321-1.058.872-2.831 1.345-4.702.236-.938.455-1.902.617-2.831.161-.93.27-1.818.271-2.646-.002-.366-.024-.721-.081-1.075z" fill="#FFF"/></svg>
