<svg xmlns="http://www.w3.org/2000/svg" xmlns:xlink="http://www.w3.org/1999/xlink" viewBox="-20 -20 140 140" xml:space="preserve"><g fill='#FFF'><polygon points="67.79,5.359 64.461,6.954 46.023,35.342 53.552,46.707  "/><path d="M33.898,55.347l-6.705,9.906c-1.184-0.3-2.417-0.476-3.692-0.476c-8.343,0-15.128,6.787-15.128,15.129   s6.786,15.128,15.128,15.128c8.34,0,15.127-6.786,15.127-15.128c0-3.908-1.502-7.464-3.944-10.152l6.52-7.451L33.898,55.347z    M23.501,88.464c-4.726,0-8.558-3.832-8.558-8.558s3.833-8.558,8.558-8.558s8.556,3.832,8.556,8.558S28.227,88.464,23.501,88.464"/><path d="M79.976,92.571c-0.93-0.483-2.761-3.157-2.761-3.157c2.107-2.6,3.377-5.907,3.377-9.508   c0-8.342-6.786-15.129-15.129-15.129c-1.55,0-3.044,0.235-4.453,0.671L23.365,7.211l-4.04-2.399l16.156,46.822l19.276,17.596   c-2.732,2.738-4.422,6.513-4.422,10.677c0,8.342,6.787,15.128,15.128,15.128c3.423,0,6.573-1.156,9.112-3.081   c0,0,1.663,2.423,2.525,2.808c2.157,0.961,9.446,0,9.446,0v-1.505C86.547,93.256,81.441,93.33,79.976,92.571 M43.01,51.269   c-1.384,0-2.51-1.123-2.51-2.508c0-1.387,1.126-2.51,2.51-2.51c1.387,0,2.51,1.124,2.51,2.51   C45.521,50.146,44.397,51.269,43.01,51.269 M65.463,88.464c-4.726,0-8.557-3.832-8.557-8.558s3.831-8.558,8.557-8.558   s8.557,3.832,8.557,8.558S70.188,88.464,65.463,88.464"/><path d="M66.792,21.012c8.103,6.285,7.984,13.172,11.228,21.251c2.623,6.532,7.772,8.334,10.556,6.643   c1.986-1.206,2.151-5.403,2.151-5.403s6.117,12.845-13.535,12.486c-11.229-0.205-19.82-7.081-19.82-7.081L66.792,21.012z"/><path d="M54.7,14.363c-4.522-1.82-10.42-6.169-21.997,0.611l10.36,16.325L54.7,14.363z"/></g></svg>
