<svg xmlns="http://www.w3.org/2000/svg" viewBox="-20 -20 140 140"><g fill="#FFF"><path d="M67.79 5.359l-3.329 1.595-18.438 28.388 7.529 11.365zM33.898 55.347l-6.705 9.906c-1.184-.3-2.417-.476-3.692-.476-8.343 0-15.128 6.787-15.128 15.129s6.786 15.128 15.128 15.128c8.34 0 15.127-6.786 15.127-15.128 0-3.908-1.502-7.464-3.944-10.152l6.52-7.451-7.306-6.956zm-10.397 33.117c-4.726 0-8.558-3.832-8.558-8.558s3.833-8.558 8.558-8.558 8.556 3.832 8.556 8.558-3.83 8.558-8.556 8.558M79.976 92.571c-.93-.483-2.761-3.157-2.761-3.157 2.107-2.6 3.377-5.907 3.377-9.508 0-8.342-6.786-15.129-15.129-15.129-1.55 0-3.044.235-4.453.671l-37.645-58.237-4.04-2.399 16.156 46.822 19.276 17.596c-2.732 2.738-4.422 6.513-4.422 10.677 0 8.342 6.787 15.128 15.128 15.128 3.423 0 6.573-1.156 9.112-3.081 0 0 1.663 2.423 2.525 2.808 2.157.961 9.446 0 9.446 0v-1.505c.001-.001-5.105.073-6.57-.686m-36.966-41.302c-1.384 0-2.51-1.123-2.51-2.508 0-1.387 1.126-2.51 2.51-2.51 1.387 0 2.51 1.124 2.51 2.51.001 1.385-1.123 2.508-2.51 2.508m22.453 37.195c-4.726 0-8.557-3.832-8.557-8.558s3.831-8.558 8.557-8.558 8.557 3.832 8.557 8.558-3.832 8.558-8.557 8.558"/><path d="M66.792 21.012c8.103 6.285 7.984 13.172 11.228 21.251 2.623 6.532 7.772 8.334 10.556 6.643 1.986-1.206 2.151-5.403 2.151-5.403s6.117 12.845-13.535 12.486c-11.229-.205-19.82-7.081-19.82-7.081l9.42-27.896zM54.7 14.363c-4.522-1.82-10.42-6.169-21.997.611l10.36 16.325 11.637-16.936z"/></g></svg>
