<svg xmlns="http://www.w3.org/2000/svg" xmlns:xlink="http://www.w3.org/1999/xlink" viewBox="-25 -30 140 140" xml:space="preserve"><g fill='#FFF'><path d="M31.028,41l8.237-18.332l11.062,36.201L59.066,41h27.927C88.687,37.254,90,33.196,90,29.089   C90,15.717,79.159,4.876,65.786,4.876c-8.753,0-16.353,4.689-20.786,11.613C40.566,9.565,32.967,4.876,24.214,4.876   C10.841,4.876,0,15.717,0,29.089C0,33.196,1.313,37.254,3.007,41H31.028z"/><path d="M60.934,44l-11.26,23L38.735,31.201L32.972,44H4.436c5.173,9.672,13.668,17.901,21.575,25.233   C32.059,74.842,38.398,80.177,45,85.124c6.602-4.948,12.941-10.283,18.989-15.891C71.896,61.901,80.392,53.672,85.564,44H60.934z"/></g></svg>
