<svg xmlns="http://www.w3.org/2000/svg" viewBox="-15 -15 80 80"><path d="M19.194 33.009l-.064-1.758c-.193-3.447.904-6.961 3.806-10.542 2.063-2.636 3.741-4.866 3.741-7.095 0-2.365-1.483-3.987-4.709-4.055-2.128 0-4.708.811-6.386 2.027l-2.192-7.366c2.387-1.418 6.191-2.77 10.771-2.77 8.515 0 12.449 4.933 12.449 10.541 0 5.137-3.096 8.516-5.547 11.354-2.322 2.771-3.354 5.406-3.29 8.447v1.217h-8.579zm-1.675 9.392c0-3.649 2.386-6.15 5.74-6.15 3.483 0 5.74 2.501 5.805 6.15 0 3.514-2.258 6.148-5.805 6.148-3.419.001-5.74-2.634-5.74-6.148z" fill="#FFF"/></svg>
