<svg viewBox="-25 -75 100 100" xmlns="http://www.w3.org/2000/svg" xmlns:xlink="http://www.w3.org/1999/xlink" ><g transform="scale(1,-1)" fill="#FFF"><path d="M12.2194422,-0.029801577 L12.2194422,34.4004381 L0.775467928,34.4004381 L0.775467928,-0.029801577 L12.2194422,-0.029801577 L12.2194422,-0.029801577 Z M6.49740413,39.1013058 C10.4881495,39.1013058 12.9720497,41.7451619 12.9720497,45.0492179 C12.8976753,48.4276482 10.4881495,50.9981487 6.57310297,50.9981487 C2.65846399,50.9981487 0.0989668001,48.4276482 0.0989668001,45.0492179 C0.0989668001,41.7451619 2.58235761,39.1013058 6.42282599,39.1013058 L6.49720036,39.1013058 L6.49740413,39.1013058 Z"></path><path d="M18.5517577,-0.029801577 L29.9956301,-0.029801577 L29.9956301,19.1975016 C29.9956301,20.2265168 30.0700044,21.2545133 30.3721885,21.9901064 C31.199476,24.0460993 33.0824721,26.1754477 36.2438923,26.1754477 C40.3849146,26.1754477 42.0414254,23.0181028 42.0414254,18.3895718 L42.0414254,-0.029801577 L53.4843809,-0.029801577 L53.4843809,19.7120092 C53.4843809,30.2874335 47.8385511,35.2083679 40.3093177,35.2083679 C34.1356336,35.2083679 31.42535,31.7576008 29.9195237,29.4071669 L29.9959357,29.4071669 L29.9959357,34.4004381 L18.5520633,34.4004381 C18.7022384,31.1697376 18.5520633,-0.029801577 18.5520633,-0.029801577 L18.5517577,-0.029801577 Z"></path></g></svg>
