<svg viewBox="-25 -75 100 100" xmlns="http://www.w3.org/2000/svg"><g fill="#FFF"><path d="M12.219.03v-34.43h-11.444v34.43h11.444zm-5.722-39.131c3.991 0 6.475-2.644 6.475-5.948-.074-3.378-2.484-5.949-6.399-5.949s-6.474 2.571-6.474 5.949c0 3.304 2.483 5.948 6.324 5.948h.074zM18.552.03h11.444v-19.227c0-1.029.074-2.057.377-2.793.827-2.056 2.71-4.185 5.872-4.185 4.141 0 5.798 3.157 5.798 7.786v18.419h11.443v-19.742c0-10.575-5.646-15.496-13.175-15.496-6.174 0-8.884 3.451-10.39 5.801h.076v-4.993h-11.444c.15 3.231 0 34.43 0 34.43z"/></g></svg>
