<svg viewBox="-25 -20 192 142" xmlns="http://www.w3.org/2000/svg"><path d="M132.142 68.673l-2.859-23.946-25.751-29.285-11.878 25.987-9.351-25.769-16.757-15.661-20.25 44.309-14.292-20.37-31.003 67.867 2.906 1.6 29.19-63.867-.05 18.8 9.04 13.691-8.595 12.304 25.452 27.006-10.576-34.397 5.086-12.447-4.955-7.053 18.451-40.369-3.296 22.684 7.13 12.6-2.507 21.527 14.516-16.784 11.471-1.239 11.326-24.779 4.034 35.7-15.013 7.818-6.619 36.739 27.749-24.731 27.261 13.179-9.858-21.116z" fill="#fff"/></svg>
