<svg xmlns="http://www.w3.org/2000/svg" viewBox="-30 -30 160 160"><g fill="#FFF"><path d="M6.225 18.551l-.025-.074c-.203-.213-.522-.25-.769-.074l-4.711 3.373c-.27.192-.264.493-.125.793.937 2.014 3.472 6.406 6.349 8.879.251.216.524.316.794.124l4.712-3.348c.25-.178.317-.481.174-.744l-.05-.074c1.461-5.021 6.987-7.444 12.673-5.853 4.896 1.37 8.283 7.465 10.937 11.309.087.125 3.373 5.06 6.597 9.92l5.332-7.192-5.283-6.845c-16.315-21.165-11.54-27.239 16.791-20.66-5.847-4.015-12.558-8.108-21.131-8.085-5.865.017-12.603 1.954-20.535 7.143-5.117 3.739-2.027 10.03-11.73 11.408zM2.033 4.936c3.753 1.528 7.514 3.041 11.259 4.588.335-.729.723-1.45 1.24-2.132-4.741-1.98-9.743-4.143-14.433-6.077l-.025 18.278 1.959-1.414v-13.243zM82.537 6.572l-.348 2.554c3.65-1.498 7.334-2.982 10.963-4.464l-.15 86.009-1.487.645.348.472c.351.49.532 1.02.619 1.562l2.604-1.116.099-90.919c-4.059 1.674-8.437 3.502-12.648 5.257zM63.738 3.795l9.301 3.943 2.033-1.265.298-.149c-3.987-1.649-7.97-3.305-11.955-4.96-2.319.964-4.646 1.916-6.969 2.877.748.549 1.454 1.109 2.109 1.662l5.183-2.108zM80.007 12.624l1.834-8.63-7.29 4.563-9.003 6.349-53.644 72.145c-2.711 3.722-.78 7.736 1.562 9.474 2.022 1.501 6.286 2.829 9.424-1.29 17.896-23.976 35.812-48.101 53.694-72.145l3.423-10.466zm-15.525 7.614l.794-.05-44.816 59.497 44.022-59.447zm3.893 3.025l.595.174-44.591 58.901 43.996-59.075zm-54.313 72.543c-2.366-1.76-3.157-4.843-1.984-7.242l9.449 7.043c-1.961 1.814-5.099 1.957-7.465.199zm-.422-9.847l.124-.619.67-.695 10.068 7.515-10.862-6.201zm1.513-2.009l.099-.645.694-.695 10.069 7.515-10.862-6.175zm1.488-2.033l.125-.646.694-.693 10.069 7.514-10.888-6.175zm11.681 3.249l43.997-59.323 1.141-.471-45.138 59.794zm46.254-61.233l-1.835.893-.894-2.034-3.347-.496-.596-3.397-3.051.421.423-2.306.769-1.438 9.349-6.448 1.166 1.19 2.704 1.488-3.546 10.962-1.142 1.165zM45.93 7.267c-.536-.017-1.096-.021-1.661-.024-1.25-.008-2.568.029-3.968.099l-.05.025 7.242 3.05 6.026-2.455c-1.43-.212-3.008-.415-4.737-.546l-1.239.521-1.613-.67zM64.482 13.566l-.025-5.424-.05 5.548zM64.457 8.061v.081l.001-.081zM9.35 93.969l-7.242-3.024-.049-61.705c-.819-1.206-1.475-2.455-1.984-3.696l-.075 66.888 12.078 5.035c-1.072-.899-2.078-2.116-2.728-3.498zM32.191 56.992l.843-1.116-.174-24.082-.396-.57-.273 25.768zM63.986 53l.769 1.091-.075-12.227-.595.793-.099 10.343zM58.901 49.626c-2.018 2.716-4.058 5.447-6.076 8.16l29.216 41.938c1.237 1.414 9.147-2.906 8.407-6.177l-31.547-43.921zM64.977 86.803l-.049-7.887-1.19-1.71-.1 8.976zM63.737 77.205l.001.001v-.001zM31.894 86.182l1.339.621-.024-2.679-1.314 1.785v.273zM63.464 89.878l-15.971 6.671-15.997-6.547-3.844 1.612-2.728 3.646 6.746-2.778 15.873 6.548 15.872-6.548 15.377 6.349-2.505-3.596-12.823-5.357z"/></g></svg>
