<svg xmlns="http://www.w3.org/2000/svg" viewBox="-25 -20 150 150"><path d="M50.576 56.758c1.854 1.298 8.215 4.695 9.452 4.695-4.016 1.174-6.486 2.657-8.525 2.657-2.038 0-7.784.616-9.08 0 2.593-1.421 8.153-7.352 8.153-7.352zm27.922-27.551c.988.865.988 3.583 2.965 1.483 1.482-.371 2.225-1.359 2.717-1.483 1.854.247 1.979-.865 1.979-1.483s.617-1.112 1.111-1.112.988-1.482 1.234-2.595c.248-1.112.125-5.931-3.088-7.042-3.213-1.112-6.178-.247-6.918 1.853-.742 2.1-1.236 4.448-1.854 3.954-.617-.495-1.236-.248-1.236-1.235 0-.989-2.223-3.939-4.324-5.059-1.977-3.343-4.447-4.331-5.312-5.196-.863-.865-2.471-3.089-3.459-3.213l-.865-1.111c-.987-.124-14.084-.371-17.667 0-3.583.371-7.112-.329-8.277.371-.618.371-.495.741-1.112.865-.618.123-1.73 1.235-1.668 1.915-1.111.247-2.223 1.297-1.791 1.544.433.247 2.718-.803 3.398-.556.679.247-2.348 1.729-2.595 2.1-.247.371.186.864.988.618.803-.247 3.151-1.792 4.572-1.482 1.421.309 1.05.433 1.236 1.05.185.618-1.545 1.359-1.483 2.533.062 1.174.68 1.297 1.05.556.371-.742 1.174-1.854 2.163-1.978.988-.124 1.135-2.458 2.224-3.274.741-.556 5.25-.185 7.29.248 2.038.432 8.215.062 9.389.988 1.174.926.556 3.15 2.41 4.633 1.852 1.482 3.768 4.077 4.076 4.571-1.791 1.42-5.684 4.757-6.672 6.301-.988 1.544-4.262 6.178-4.694 6.487 0 .988-1.606 2.286-2.78 2.718-1.173.433-2.594 1.668-3.274 2.163-.989 0-1.049.185-1.42.618-.68.247-1.421 1.235-1.73 1.729.495.247.495.062.062.494s-2.656 3.583-3.274 6.548c-1.668 2.162-3.511 3.882-4.263 4.634-2.471 2.471-4.633 8.895-5.374 9.637-.742.742-6.796 4.016-8.34 5.931-1.544 1.915-1.297 2.841-1.606 3.15s-8.524 9.019-9.389 8.648c-.865-.371-4.942-1.112-5.622-.927-.371 1.854-1.05 4.942-.926 6.054s-.495 3.027-.803 4.571c-.309 1.545-.556 5.375 1.05 6.364 1.605.987 2.1-3.708 2.347-3.894.247-.185 3.274-3.396 3.768-4.509s2.718-3.15 3.892-4.386c1.173-1.235 12.539-10.811 14.64-11.799 2.1-.989 4.077-1.979 5.065-2.719.432 2.904 2.41 10.811 5.004 11.182 2.594.37 1.482-1.483 1.482-2.719s-.371-2.348.247-2.966c.617-.617.062-1.79.494-2.655.433-.865 2.162-1.792 2.039-2.102-.124-.308-1.05-.493.123-.617 1.174-.123 13.096-.186 16.617 0s4.447-.74 6.178-.617c1.729.123 2.039-.803 2.719-.927s2.594-1.915 1.543-5.065c-1.049-3.15-8.029-12.17-10.625-13.776-.186-2.595-.494-1.73.062-2.163s4.139-1.915 5.498-3.336 2.656-1.174 4.016-2.224c1.357-1.05 3.459-3.335 4.139-3.459.68-.124 5.807 6.734 8.338 7.537 2.533.803 1.537 3.055 5.746 2.718 1.543-.124 2.439-6.035 2.779-7.907.246-1.359.865-6.61.988-7.414s1.051-3.027.988-3.397c-.061-.371-.309-1.297-.246-2.348.061-1.049.186-4.015 0-4.201-.186-.185-1.111-.432-.988.495s.061 1.854 0 2.286c-.434.062-.68-2.255-.619-2.934.062-.68-.68-2.873-.74.092-.102 4.88-.186 2.348-.186 2.533-.434.124-.434-1.359-.434-1.977s.186-2.286-.184-2.471c-.371-.186-1.111-.124-1.051 1.111.062 1.236.309 2.472.309 2.842v.803c-.369.185-.74-2.348-.74-2.657 0-.309-1.113-3.274-.928 0 .186 3.274.309 2.348.494 2.78.186.433.186 1.729.062 2.162-.617-.803-.309-1.482-.742-1.667-.432-.186-1.482-.309-1.049 1.297.432 1.606 1.914 2.904 2.348 3.521.432.617.309 3.027-.062 4.201-.371 1.173-1.977 4.263-2.285 5.498-.742-1.296-3.398-2.841-4.51-3.335-1.113-.494.432-2.965-3.398-5.869-3.832-2.902-1.236-2.531-1.236-2.531z" fill="#FFF"/></svg>
