<svg xmlns="http://www.w3.org/2000/svg" viewBox="-15 -15 130 130"><path fill="#FFF" d="M3.792 59.268c0 8.378 7.3 18.046 16.31 18.046h60.588c9.01 0 16.31-9.668 16.31-18.046 0-7.518-5.918-16.605-13.655-17.793.13-.604.271-1.223.2-1.862-1.02-9.188-12.178-12.789-17.575-12.028-3.044.429-8.563 1.701-9.471 5.485-3.377-9.464-10.332-12.301-19.07-12.301-11.262 0-20.388 8.478-20.388 18.94 0 .605.031 1.201.097 1.787-7.589 1.305-13.346 10.349-13.346 17.772zm37.46 5.929h-13.096c-1.763 0-2.797-1-2.797-2.398 0-.664.231-1.332.667-1.934l10.73-14.993h-8.764c-1.334 0-2.333-.769-2.333-2.131 0-1.272 1.065-2.269 2.333-2.269h12.195c1.93 0 2.801 1.235 2.801 2.399 0 .734-.302 1.566-.735 2.133l-10.664 14.797h9.663c1.398 0 2.399.766 2.399 2.198.001 1.267-1.201 2.198-2.399 2.198zm16.635 0h-11.163c-1.065 0-1.969-.534-1.969-1.631 0-.536.268-1.036.437-1.303l7.529-10.595h-5.564c-1.202 0-2.168-.766-2.168-2.1 0-1.332.966-2.097 2.168-2.097h10.895c.436 0 1.567.198 1.567 1.498 0 .633-.135.933-.499 1.433l-7.562 10.598h6.33c1.198 0 2.164.764 2.164 2.097-.001 1.335-.967 2.1-2.165 2.1zm16.026 0h-11.163c-1.062 0-1.963-.534-1.963-1.631 0-.536.265-1.036.435-1.303l7.528-10.595h-5.564c-1.201 0-2.167-.766-2.167-2.1 0-1.332.966-2.097 2.167-2.097h10.894c.438 0 1.571.198 1.571 1.498 0 .633-.139.933-.503 1.433l-7.563 10.598h6.328c1.202 0 2.168.764 2.168 2.097 0 1.335-.966 2.1-2.168 2.1z"/></svg>
