<svg xmlns="http://www.w3.org/2000/svg" xmlns:xlink="http://www.w3.org/1999/xlink" viewBox="-15 -15 130 130" xml:space="preserve"><path fill="#FFF" d="M3.792,59.268c0,8.378,7.3,18.046,16.31,18.046H80.69c9.01,0,16.31-9.668,16.31-18.046   c0-7.518-5.918-16.605-13.655-17.793c0.13-0.604,0.271-1.223,0.2-1.862c-1.02-9.188-12.178-12.789-17.575-12.028   c-3.044,0.429-8.563,1.701-9.471,5.485c-3.377-9.464-10.332-12.301-19.07-12.301c-11.262,0-20.388,8.478-20.388,18.94   c0,0.605,0.031,1.201,0.097,1.787C9.549,42.801,3.792,51.845,3.792,59.268z M41.252,65.197H28.156c-1.763,0-2.797-1-2.797-2.398   c0-0.664,0.231-1.332,0.667-1.934l10.73-14.993h-8.764c-1.334,0-2.333-0.769-2.333-2.131c0-1.272,1.065-2.269,2.333-2.269h12.195   c1.93,0,2.801,1.235,2.801,2.399c0,0.734-0.302,1.566-0.735,2.133L31.589,60.801h9.663c1.398,0,2.399,0.766,2.399,2.198   C43.652,64.266,42.45,65.197,41.252,65.197z M57.887,65.197H46.724c-1.065,0-1.969-0.534-1.969-1.631   c0-0.536,0.268-1.036,0.437-1.303l7.529-10.595h-5.564c-1.202,0-2.168-0.766-2.168-2.1c0-1.332,0.966-2.097,2.168-2.097h10.895   c0.436,0,1.567,0.198,1.567,1.498c0,0.633-0.135,0.933-0.499,1.433l-7.562,10.598h6.33c1.198,0,2.164,0.764,2.164,2.097   C60.051,64.432,59.085,65.197,57.887,65.197z M73.913,65.197H62.75c-1.062,0-1.963-0.534-1.963-1.631   c0-0.536,0.265-1.036,0.435-1.303l7.528-10.595h-5.564c-1.201,0-2.167-0.766-2.167-2.1c0-1.332,0.966-2.097,2.167-2.097H74.08   c0.438,0,1.571,0.198,1.571,1.498c0,0.633-0.139,0.933-0.503,1.433l-7.563,10.598h6.328c1.202,0,2.168,0.764,2.168,2.097   C76.081,64.432,75.115,65.197,73.913,65.197z"/></svg>
