<svg xmlns="http://www.w3.org/2000/svg" xmlns:xlink="http://www.w3.org/1999/xlink" viewBox="-25 -25 150 150" xml:space="preserve"><g fill='#FFF'><path d="M65.58,44.254c2.07-6.327,5.246-14.745,2.035-21.201c-3.043-6.123-11.189-6.654-16.971-5.754   C39.62,19.024,24.353,27.921,26.256,40.831c1.365,9.273,8.377,20.186,8.058,28.411c-0.272,7.007-2.772,14.462-0.343,21.356   c3.357,9.533,19.769,12.718,26.06,4.276c8.775-11.779,0.549-27.221,2.477-40.282C63.031,51.049,64.469,47.644,65.58,44.254z"/><path d="M61.453,15.216c3.426,0.196,6.402-3.042,6.643-7.235c0.244-4.194-2.342-7.754-5.768-7.953   c-3.432-0.197-6.406,3.042-6.648,7.237C55.439,11.458,58.023,15.014,61.453,15.216z"/><path d="M49.18,14.297c2.386,0.135,4.458-2.12,4.628-5.041c0.166-2.922-1.635-5.401-4.021-5.538   c-2.387-0.139-4.46,2.117-4.629,5.041C44.991,11.676,46.794,14.157,49.18,14.297z"/><path d="M39.77,17.408c2.206,0.128,4.12-1.955,4.277-4.652c0.156-2.699-1.508-4.991-3.714-5.12   c-2.208-0.126-4.122,1.963-4.277,4.659C35.899,14.993,37.562,17.284,39.77,17.408z"/><path d="M32.876,21.613c1.804-0.133,3.13-2.029,2.965-4.236c-0.167-2.202-1.761-3.888-3.565-3.75   c-1.803,0.139-3.13,2.036-2.962,4.243C29.475,20.069,31.068,21.75,32.876,21.613z"/><path d="M29.665,22.63c-0.459-2.029-2.175-3.371-3.832-2.992c-1.657,0.374-2.626,2.322-2.167,4.35   c0.458,2.023,2.175,3.363,3.834,2.987C29.154,26.597,30.125,24.651,29.665,22.63z"/></g></svg>
