<svg xmlns="http://www.w3.org/2000/svg" viewBox="-25 -25 150 150"><g fill="#FFF"><path d="M65.58 44.254c2.07-6.327 5.246-14.745 2.035-21.201-3.043-6.123-11.189-6.654-16.971-5.754-11.024 1.725-26.291 10.622-24.388 23.532 1.365 9.273 8.377 20.186 8.058 28.411-.272 7.007-2.772 14.462-.343 21.356 3.357 9.533 19.769 12.718 26.06 4.276 8.775-11.779.549-27.221 2.477-40.282.523-3.543 1.961-6.948 3.072-10.338zM61.453 15.216c3.426.196 6.402-3.042 6.643-7.235.244-4.194-2.342-7.754-5.768-7.953-3.432-.197-6.406 3.042-6.648 7.237-.241 4.193 2.343 7.749 5.773 7.951zM49.18 14.297c2.386.135 4.458-2.12 4.628-5.041.166-2.922-1.635-5.401-4.021-5.538-2.387-.139-4.46 2.117-4.629 5.041-.167 2.917 1.636 5.398 4.022 5.538zM39.77 17.408c2.206.128 4.12-1.955 4.277-4.652.156-2.699-1.508-4.991-3.714-5.12-2.208-.126-4.122 1.963-4.277 4.659-.157 2.698 1.506 4.989 3.714 5.113zM32.876 21.613c1.804-.133 3.13-2.029 2.965-4.236-.167-2.202-1.761-3.888-3.565-3.75-1.803.139-3.13 2.036-2.962 4.243.161 2.199 1.754 3.88 3.562 3.743zM29.665 22.63c-.459-2.029-2.175-3.371-3.832-2.992-1.657.374-2.626 2.322-2.167 4.35.458 2.023 2.175 3.363 3.834 2.987 1.654-.378 2.625-2.324 2.165-4.345z"/></g></svg>
