<svg xmlns="http://www.w3.org/2000/svg" viewBox="-17 -20 70 70"><path d="M34.317 8.819c0 10.404-7.919 22.4-22.4 22.4-4.445 0-8.584-1.303-12.07-3.537.613.068 1.243.111 1.878.111 3.689 0 7.083-1.26 9.779-3.373-3.449-.061-6.354-2.34-7.357-5.467.481.092.975.143 1.478.143.72 0 1.416-.098 2.075-.277-3.602-.727-6.317-3.905-6.317-7.723v-.098c1.062.588 2.277.942 3.567.982-2.112-1.412-3.5-3.824-3.5-6.554 0-1.442.388-2.793 1.066-3.956 3.88 4.763 9.683 7.896 16.227 8.224-.136-.574-.202-1.178-.202-1.795 0-4.344 3.524-7.869 7.87-7.869 2.266 0 4.313.956 5.749 2.483 1.791-.351 3.478-1.006 4.999-1.909-.589 1.837-1.838 3.38-3.461 4.354 1.591-.188 3.106-.611 4.52-1.24-1.053 1.587-2.386 2.973-3.926 4.083 0 0 .025.677.025 1.018z" fill="#FFF"/></svg>
